<svg width="168" height="19" viewBox="0 0 168 19" fill="none" xmlns="http://www.w3.org/2000/svg">
<g clip-path="url(#clip0_5_77)">
<path d="M11.59 13.0001C11.5887 13.8947 11.3543 14.7736 10.91 15.5501C10.4203 16.411 9.6859 17.1071 8.8 17.5501C7.64416 18.0917 6.3755 18.3488 5.1 18.3001C4.43203 18.3021 3.76443 18.2687 3.1 18.2001C2.56028 18.1382 2.02781 18.0244 1.51 17.8601C0.99066 17.6668 0.486005 17.4362 0 17.1701L0 13.1701C0.867631 13.6013 1.77969 13.9366 2.72 14.1701C3.52453 14.3953 4.35465 14.5163 5.19 14.5301C5.563 14.538 5.93472 14.4839 6.29 14.3701C6.52767 14.3083 6.74276 14.1799 6.91 14.0001C7.0519 13.8174 7.12612 13.5913 7.12 13.3601C7.12214 13.2244 7.09664 13.0897 7.04506 12.9642C6.99349 12.8387 6.91691 12.725 6.82 12.6301C6.52186 12.3688 6.18438 12.1562 5.82 12.0001C5.38 11.7901 4.82 11.5101 4.09 11.1901C3.36 10.8701 3 10.5901 2.47 10.2901C2.00646 10.0156 1.58255 9.67917 1.21 9.29006C0.843166 8.88656 0.566976 8.4092 0.4 7.89006C0.191675 7.28233 0.0934687 6.6423 0.11 6.00006C0.0888019 5.06194 0.365367 4.14122 0.9 3.37006C1.45477 2.62414 2.21623 2.05739 3.09 1.74006C4.13455 1.3624 5.23947 1.17938 6.35 1.20006C7.33183 1.18759 8.31081 1.3087 9.26 1.56006C10.0568 1.77669 10.8357 2.05417 11.59 2.39006L10.22 5.84006C9.53925 5.53092 8.8375 5.27027 8.12 5.06006C7.499 4.88045 6.85643 4.78625 6.21 4.78006C5.89062 4.76669 5.57162 4.8142 5.27 4.92006C5.05308 4.98947 4.86166 5.12173 4.72 5.30006C4.60736 5.45741 4.54781 5.64657 4.55 5.84006C4.55636 6.10035 4.66399 6.34789 4.85 6.53006C5.14831 6.79902 5.48542 7.02152 5.85 7.19006C6.32 7.43006 6.96 7.74006 7.78 8.11006C8.50576 8.43083 9.19615 8.82629 9.84 9.29006C10.3864 9.67959 10.8321 10.1938 11.14 10.7901C11.4668 11.4794 11.6212 12.2378 11.59 13.0001Z" fill="white"/>
<path d="M20.17 14.71C20.5368 14.7135 20.9027 14.6732 21.26 14.59C21.59 14.5 21.94 14.4 22.26 14.27V17.49C21.768 17.7124 21.2556 17.8865 20.73 18.01C20.0533 18.1556 19.3621 18.2227 18.67 18.21C17.9182 18.2248 17.1708 18.0923 16.47 17.82C15.8387 17.5484 15.3198 17.0683 15 16.46C14.6112 15.6151 14.4328 14.6887 14.48 13.76V8.47997H13V6.67997L15 5.27997L16.14 2.58997H19V5.15997H22.14V8.47997H19V13.48C18.9869 13.6478 19.0076 13.8166 19.0608 13.9763C19.1141 14.1361 19.1988 14.2835 19.31 14.41C19.5467 14.6182 19.8552 14.7258 20.17 14.71Z" fill="white"/>
<path d="M30.8 4.92998C32.1726 4.85049 33.5261 5.28147 34.6 6.13998C35.0743 6.5712 35.4461 7.10301 35.6883 7.69647C35.9306 8.28994 36.037 8.93005 36 9.56998V18H32.91L32.06 16.3H32C31.6758 16.7164 31.2993 17.0895 30.88 17.41C30.4899 17.6972 30.0487 17.9076 29.58 18.03C28.991 18.1732 28.3861 18.2404 27.78 18.23C27.0857 18.2427 26.3989 18.0848 25.78 17.77C25.1909 17.466 24.7067 16.9923 24.39 16.41C24.0271 15.692 23.8516 14.8939 23.88 14.09C23.8294 13.4982 23.9315 12.9033 24.1767 12.3622C24.4218 11.8212 24.8017 11.3521 25.28 11C26.5264 10.2514 27.9562 9.86364 29.41 9.87998L31.55 9.80998V9.63998C31.5732 9.41747 31.5466 9.19259 31.4723 8.9816C31.3979 8.77061 31.2776 8.57878 31.12 8.41998C30.8023 8.16891 30.4045 8.04107 30 8.05998C29.4276 8.07126 28.8593 8.15869 28.31 8.31998C27.6648 8.50194 27.0332 8.72917 26.42 8.99998L25.14 6.08998C25.9365 5.68883 26.7845 5.39944 27.66 5.22998C28.6932 5.0199 29.7457 4.91934 30.8 4.92998ZM31.57 12.26H30.57C29.9698 12.2288 29.3741 12.3786 28.86 12.69C28.6966 12.8165 28.5666 12.9811 28.4812 13.1693C28.3958 13.3575 28.3576 13.5637 28.37 13.77C28.3471 13.9524 28.3668 14.1376 28.4276 14.3111C28.4883 14.4846 28.5884 14.6416 28.72 14.77C28.9756 14.9873 29.3049 15.0983 29.64 15.08C30.1467 15.0942 30.64 14.9155 31.02 14.58C31.2065 14.4134 31.3541 14.208 31.4526 13.9782C31.5511 13.7484 31.598 13.4999 31.59 13.25L31.57 12.26Z" fill="white"/>
<path d="M43.41 0.369995V4.37C43.41 4.81999 43.41 5.25 43.41 5.66C43.41 6.06999 43.34 6.46 43.3 6.82H43.46C43.7976 6.29224 44.2401 5.83953 44.76 5.49C45.3897 5.10195 46.1209 4.91046 46.86 4.94C47.5042 4.93282 48.1402 5.08411 48.7122 5.38055C49.2842 5.677 49.7745 6.1095 50.14 6.64C51.08 8.09766 51.5253 9.81938 51.41 11.55C51.4462 12.7987 51.2495 14.0433 50.83 15.22C50.5046 16.1114 49.9324 16.8918 49.18 17.47C48.4635 17.9734 47.6055 18.236 46.73 18.22C46.0092 18.2648 45.2907 18.1017 44.66 17.75C44.2207 17.4669 43.8177 17.1311 43.46 16.75H43.19L42.44 18H39V0.369995H43.41ZM45.2 8.37C44.8455 8.35538 44.4954 8.4534 44.2 8.64999C43.9114 8.86997 43.7039 9.17947 43.61 9.52999C43.4687 10.0204 43.4046 10.5299 43.42 11.04V11.66C43.3711 12.4215 43.5084 13.1834 43.82 13.88C43.9651 14.1237 44.1768 14.3208 44.4301 14.4484C44.6834 14.5759 44.9678 14.6285 45.25 14.6C45.5067 14.6 45.7576 14.524 45.9711 14.3817C46.1847 14.2393 46.3513 14.0369 46.45 13.8C46.7688 13.0629 46.9126 12.262 46.87 11.46C46.9133 10.6654 46.773 9.87157 46.46 9.14C46.3427 8.9098 46.1614 8.71842 45.9378 8.5889C45.7143 8.45939 45.458 8.39726 45.2 8.41V8.37Z" fill="white"/>
<path d="M58.31 18H53.89V0.369995H58.31V18Z" fill="white"/>
<path d="M63.63 1.77373e-05C64.2089 -0.0150651 64.7815 0.122915 65.29 0.400018C65.5483 0.571571 65.7522 0.813225 65.878 1.09662C66.0038 1.38002 66.0461 1.69341 66 2.00002C66.0367 2.29735 65.9896 2.59901 65.8642 2.87107C65.7388 3.14313 65.5399 3.3748 65.29 3.54002C64.7825 3.8206 64.2098 3.96204 63.63 3.95002C63.0572 3.95094 62.4945 3.79905 62 3.51002C61.7566 3.34564 61.5621 3.11855 61.4371 2.85276C61.3122 2.58696 61.2613 2.29233 61.29 2.00002C61.2476 1.69366 61.2915 1.38153 61.417 1.09883C61.5424 0.816125 61.7444 0.574091 62 0.400018C62.4983 0.124488 63.0608 -0.0135641 63.63 1.77373e-05ZM65.83 5.16002V18H61.4V5.16002H65.83Z" fill="white"/>
<path d="M81.39 5.16003V18H78.05L77.49 16.41H77.23C76.9752 16.8136 76.6335 17.1552 76.23 17.41C75.8218 17.6846 75.3681 17.8843 74.89 18C74.3904 18.1296 73.8761 18.1934 73.36 18.19C72.5759 18.202 71.7994 18.0344 71.09 17.7C70.4084 17.3719 69.8483 16.8363 69.49 16.17C69.0575 15.3451 68.8506 14.4206 68.89 13.49V5.16003H73.32V12.16C73.2853 12.8089 73.4052 13.4567 73.67 14.05C73.7824 14.259 73.9524 14.4312 74.1598 14.5464C74.3671 14.6617 74.6032 14.715 74.84 14.7C75.0757 14.7145 75.3118 14.6821 75.535 14.6049C75.7581 14.5277 75.9637 14.4071 76.14 14.25C76.4831 13.8778 76.7061 13.4108 76.78 12.91C76.9235 12.2057 76.9972 11.4889 77 10.77V5.16003H81.39Z" fill="white"/>
<path d="M100.09 4.92997C101.313 4.85088 102.519 5.25278 103.45 6.04997C103.874 6.54022 104.195 7.11061 104.394 7.72729C104.593 8.34397 104.667 8.99439 104.61 9.63997V18H100.18V11C100.234 10.3103 100.099 9.61886 99.79 8.99997C99.6617 8.81348 99.4877 8.6631 99.2845 8.56328C99.0814 8.46346 98.856 8.41755 98.63 8.42997C98.314 8.4079 97.9991 8.48713 97.7312 8.65617C97.4633 8.8252 97.2562 9.07524 97.14 9.36997C96.8337 10.2117 96.6944 11.105 96.73 12V18H92.29V11C92.3048 10.495 92.251 9.99042 92.13 9.49997C92.0559 9.17663 91.885 8.88359 91.64 8.65997C91.4003 8.48273 91.108 8.39116 90.81 8.39997C90.5918 8.3873 90.3734 8.42183 90.1698 8.50122C89.9662 8.5806 89.782 8.70296 89.63 8.85997C89.2952 9.24047 89.0766 9.70898 89 10.21C88.8732 10.9227 88.8162 11.6462 88.83 12.37V18H84.44V5.15997H87.78L88.42 6.73997H88.55C88.787 6.38399 89.0849 6.07256 89.43 5.81997C89.811 5.52895 90.2411 5.30878 90.7 5.16997C91.2507 5.00212 91.8243 4.92114 92.4 4.92997C93.204 4.90018 94.0033 5.06484 94.73 5.40997C95.3288 5.71458 95.8412 6.1651 96.22 6.71997H96.36C96.7597 6.15099 97.3008 5.69603 97.93 5.39997C98.6047 5.08048 99.3436 4.91971 100.09 4.92997Z" fill="white"/>
<path d="M112.6 13.53V10H119V13.53H112.6Z" fill="white"/>
<path d="M138.1 13C138.103 13.8953 137.869 14.7753 137.42 15.55C136.93 16.411 136.196 17.1071 135.31 17.55C134.158 18.0934 132.892 18.3507 131.62 18.3C130.952 18.3019 130.284 18.2685 129.62 18.2C129.08 18.1382 128.548 18.0243 128.03 17.86C127.506 17.6969 126.995 17.4963 126.5 17.26V13.26C127.368 13.6896 128.28 14.0248 129.22 14.26C130.028 14.4853 130.861 14.6063 131.7 14.62C132.07 14.6281 132.438 14.5741 132.79 14.46C133.038 14.3765 133.256 14.2238 133.42 14.02C133.553 13.8333 133.623 13.6092 133.62 13.38C133.622 13.2444 133.597 13.1097 133.545 12.9842C133.493 12.8587 133.417 12.745 133.32 12.65C133.021 12.3901 132.684 12.1776 132.32 12.02C131.88 11.81 131.32 11.53 130.58 11.21C130.015 10.9458 129.464 10.652 128.93 10.33C128.462 10.0582 128.034 9.72149 127.66 9.33002C127.305 8.93316 127.03 8.47134 126.85 7.97002C126.656 7.33251 126.581 6.66463 126.63 6.00002C126.597 5.04945 126.871 4.1135 127.41 3.33002C127.969 2.58379 128.733 2.01721 129.61 1.70002C130.651 1.32158 131.753 1.13852 132.86 1.16002C133.845 1.14873 134.827 1.26981 135.78 1.52002C136.574 1.73664 137.349 2.01413 138.1 2.35002L136.73 5.80002C136.053 5.49095 135.354 5.2303 134.64 5.02002C134.019 4.84114 133.376 4.74695 132.73 4.74002C132.407 4.72659 132.085 4.77408 131.78 4.88002C131.567 4.95222 131.38 5.08414 131.24 5.26002C131.12 5.41437 131.057 5.60481 131.06 5.80002C131.066 6.06031 131.174 6.30785 131.36 6.49002C131.66 6.75701 131.997 6.97931 132.36 7.15002C132.83 7.39002 133.48 7.70002 134.29 8.07002C135.015 8.39149 135.706 8.78692 136.35 9.25002C136.896 9.63955 137.342 10.1538 137.65 10.75C137.978 11.4532 138.132 12.2248 138.1 13Z" fill="white"/>
<path d="M148 18.0001H143.53V5.09006H139.53V1.44006H152V5.09006H148V18.0001Z" fill="white"/>
<path d="M154.35 1.44006H160.12C162.507 1.44006 164.213 1.7934 165.24 2.50006C165.736 2.83656 166.136 3.29461 166.404 3.83038C166.672 4.36616 166.798 4.96171 166.77 5.56006C166.788 6.19568 166.654 6.82645 166.38 7.40006C166.148 7.87454 165.805 8.28614 165.38 8.60006C165.016 8.87658 164.601 9.08029 164.16 9.20006V9.31006C164.637 9.43419 165.094 9.62258 165.52 9.87006C165.99 10.1408 166.379 10.5305 166.65 11.0001C166.976 11.6502 167.128 12.3738 167.09 13.1001C167.116 14.0219 166.85 14.9283 166.33 15.6901C165.778 16.4435 165.021 17.0231 164.15 17.3601C163.079 17.7719 161.937 17.9689 160.79 17.9401H154.35V1.44006ZM158.82 7.79006H160.17C160.73 7.84477 161.289 7.67984 161.73 7.33006C161.876 7.18296 161.991 7.00805 162.068 6.81567C162.146 6.62329 162.184 6.41736 162.18 6.21006C162.185 6.01414 162.141 5.82012 162.052 5.64553C161.962 5.47095 161.831 5.32128 161.67 5.21006C161.187 4.93558 160.634 4.81031 160.08 4.85006H158.82V7.79006ZM158.82 11.0601V14.5301H160.4C160.689 14.554 160.979 14.5195 161.254 14.4284C161.529 14.3373 161.783 14.1916 162 14.0001C162.315 13.6535 162.484 13.1983 162.47 12.7301C162.469 12.4416 162.4 12.1574 162.27 11.9001C162.12 11.6238 161.885 11.403 161.6 11.2701C161.184 11.0914 160.732 11.0094 160.28 11.0301L158.82 11.0601Z" fill="white"/>
<path d="M11.59 13.0001C11.5887 13.8947 11.3543 14.7736 10.91 15.5501C10.4203 16.411 9.6859 17.1071 8.8 17.5501C7.64416 18.0917 6.3755 18.3488 5.1 18.3001C4.43203 18.3021 3.76443 18.2687 3.1 18.2001C2.56028 18.1382 2.02781 18.0244 1.51 17.8601C0.99066 17.6668 0.486005 17.4362 0 17.1701L0 13.1701C0.867631 13.6013 1.77969 13.9366 2.72 14.1701C3.52453 14.3953 4.35465 14.5163 5.19 14.5301C5.563 14.538 5.93472 14.4839 6.29 14.3701C6.52767 14.3083 6.74276 14.1799 6.91 14.0001C7.0519 13.8174 7.12612 13.5913 7.12 13.3601C7.12214 13.2244 7.09664 13.0897 7.04506 12.9642C6.99349 12.8387 6.91691 12.725 6.82 12.6301C6.52186 12.3688 6.18438 12.1562 5.82 12.0001C5.38 11.7901 4.82 11.5101 4.09 11.1901C3.36 10.8701 3 10.5901 2.47 10.2901C2.00646 10.0156 1.58255 9.67917 1.21 9.29006C0.843166 8.88656 0.566976 8.4092 0.4 7.89006C0.191675 7.28233 0.0934687 6.6423 0.11 6.00006C0.0888019 5.06194 0.365367 4.14122 0.9 3.37006C1.45477 2.62414 2.21623 2.05739 3.09 1.74006C4.13455 1.3624 5.23947 1.17938 6.35 1.20006C7.33183 1.18759 8.31081 1.3087 9.26 1.56006C10.0568 1.77669 10.8357 2.05417 11.59 2.39006L10.22 5.84006C9.53925 5.53092 8.8375 5.27027 8.12 5.06006C7.499 4.88045 6.85643 4.78625 6.21 4.78006C5.89062 4.76669 5.57162 4.8142 5.27 4.92006C5.05308 4.98947 4.86166 5.12173 4.72 5.30006C4.60736 5.45741 4.54781 5.64657 4.55 5.84006C4.55636 6.10035 4.66399 6.34789 4.85 6.53006C5.14831 6.79902 5.48542 7.02152 5.85 7.19006C6.32 7.43006 6.96 7.74006 7.78 8.11006C8.50576 8.43083 9.19615 8.82629 9.84 9.29006C10.3864 9.67959 10.8321 10.1938 11.14 10.7901C11.4668 11.4794 11.6212 12.2378 11.59 13.0001Z" fill="url(#paint0_linear_5_77)"/>
<path d="M20.17 14.71C20.5368 14.7135 20.9027 14.6732 21.26 14.59C21.59 14.5 21.94 14.4 22.26 14.27V17.49C21.768 17.7124 21.2556 17.8865 20.73 18.01C20.0533 18.1556 19.3621 18.2227 18.67 18.21C17.9182 18.2248 17.1708 18.0923 16.47 17.82C15.8387 17.5484 15.3198 17.0683 15 16.46C14.6112 15.6151 14.4328 14.6887 14.48 13.76V8.47997H13V6.67997L15 5.27997L16.14 2.58997H19V5.15997H22.14V8.47997H19V13.48C18.9869 13.6478 19.0076 13.8166 19.0608 13.9763C19.1141 14.1361 19.1988 14.2835 19.31 14.41C19.5467 14.6182 19.8552 14.7258 20.17 14.71Z" fill="url(#paint1_linear_5_77)"/>
<path d="M30.8 4.92998C32.1726 4.85049 33.5261 5.28147 34.6 6.13998C35.0743 6.5712 35.4461 7.10301 35.6883 7.69647C35.9306 8.28994 36.037 8.93005 36 9.56998V18H32.91L32.06 16.3H32C31.6758 16.7164 31.2993 17.0895 30.88 17.41C30.4899 17.6972 30.0487 17.9076 29.58 18.03C28.991 18.1732 28.3861 18.2404 27.78 18.23C27.0857 18.2427 26.3989 18.0848 25.78 17.77C25.1909 17.466 24.7067 16.9923 24.39 16.41C24.0271 15.692 23.8516 14.8939 23.88 14.09C23.8294 13.4982 23.9315 12.9033 24.1767 12.3622C24.4218 11.8212 24.8017 11.3521 25.28 11C26.5264 10.2514 27.9562 9.86364 29.41 9.87998L31.55 9.80998V9.63998C31.5732 9.41747 31.5466 9.19259 31.4723 8.9816C31.3979 8.77061 31.2776 8.57878 31.12 8.41998C30.8023 8.16891 30.4045 8.04107 30 8.05998C29.4276 8.07126 28.8593 8.15869 28.31 8.31998C27.6648 8.50194 27.0332 8.72917 26.42 8.99998L25.14 6.08998C25.9365 5.68883 26.7845 5.39944 27.66 5.22998C28.6932 5.0199 29.7457 4.91934 30.8 4.92998ZM31.57 12.26H30.57C29.9698 12.2288 29.3741 12.3786 28.86 12.69C28.6966 12.8165 28.5666 12.9811 28.4812 13.1693C28.3958 13.3575 28.3576 13.5637 28.37 13.77C28.3471 13.9524 28.3668 14.1376 28.4276 14.3111C28.4883 14.4846 28.5884 14.6416 28.72 14.77C28.9756 14.9873 29.3049 15.0983 29.64 15.08C30.1467 15.0942 30.64 14.9155 31.02 14.58C31.2065 14.4134 31.3541 14.208 31.4526 13.9782C31.5511 13.7484 31.598 13.4999 31.59 13.25L31.57 12.26Z" fill="url(#paint2_linear_5_77)"/>
<path d="M43.41 0.369995V4.37C43.41 4.81999 43.41 5.25 43.41 5.66C43.41 6.06999 43.34 6.46 43.3 6.82H43.46C43.7976 6.29224 44.2401 5.83953 44.76 5.49C45.3897 5.10195 46.1209 4.91046 46.86 4.94C47.5042 4.93282 48.1402 5.08411 48.7122 5.38055C49.2842 5.677 49.7745 6.1095 50.14 6.64C51.08 8.09766 51.5253 9.81938 51.41 11.55C51.4462 12.7987 51.2495 14.0433 50.83 15.22C50.5046 16.1114 49.9324 16.8918 49.18 17.47C48.4635 17.9734 47.6055 18.236 46.73 18.22C46.0092 18.2648 45.2907 18.1017 44.66 17.75C44.2207 17.4669 43.8177 17.1311 43.46 16.75H43.19L42.44 18H39V0.369995H43.41ZM45.2 8.37C44.8455 8.35538 44.4954 8.4534 44.2 8.64999C43.9114 8.86997 43.7039 9.17947 43.61 9.52999C43.4687 10.0204 43.4046 10.5299 43.42 11.04V11.66C43.3711 12.4215 43.5084 13.1834 43.82 13.88C43.9651 14.1237 44.1768 14.3208 44.4301 14.4484C44.6834 14.5759 44.9678 14.6285 45.25 14.6C45.5067 14.6 45.7576 14.524 45.9711 14.3817C46.1847 14.2393 46.3513 14.0369 46.45 13.8C46.7688 13.0629 46.9126 12.262 46.87 11.46C46.9133 10.6654 46.773 9.87157 46.46 9.14C46.3427 8.9098 46.1614 8.71842 45.9378 8.5889C45.7143 8.45939 45.458 8.39726 45.2 8.41V8.37Z" fill="url(#paint3_linear_5_77)"/>
<path d="M58.31 18H53.89V0.369995H58.31V18Z" fill="url(#paint4_linear_5_77)"/>
<path d="M63.63 1.77373e-05C64.2089 -0.0150651 64.7815 0.122915 65.29 0.400018C65.5483 0.571571 65.7522 0.813225 65.878 1.09662C66.0038 1.38002 66.0461 1.69341 66 2.00002C66.0367 2.29735 65.9896 2.59901 65.8642 2.87107C65.7388 3.14313 65.5399 3.3748 65.29 3.54002C64.7825 3.8206 64.2098 3.96204 63.63 3.95002C63.0572 3.95094 62.4945 3.79905 62 3.51002C61.7566 3.34564 61.5621 3.11855 61.4371 2.85276C61.3122 2.58696 61.2613 2.29233 61.29 2.00002C61.2476 1.69366 61.2915 1.38153 61.417 1.09883C61.5424 0.816125 61.7444 0.574091 62 0.400018C62.4983 0.124488 63.0608 -0.0135641 63.63 1.77373e-05ZM65.83 5.16002V18H61.4V5.16002H65.83Z" fill="url(#paint5_linear_5_77)"/>
<path d="M81.39 5.16003V18H78.05L77.49 16.41H77.23C76.9752 16.8136 76.6335 17.1552 76.23 17.41C75.8218 17.6846 75.3681 17.8843 74.89 18C74.3904 18.1296 73.8761 18.1934 73.36 18.19C72.5759 18.202 71.7994 18.0344 71.09 17.7C70.4084 17.3719 69.8483 16.8363 69.49 16.17C69.0575 15.3451 68.8506 14.4206 68.89 13.49V5.16003H73.32V12.16C73.2853 12.8089 73.4052 13.4567 73.67 14.05C73.7824 14.259 73.9524 14.4312 74.1598 14.5464C74.3671 14.6617 74.6032 14.715 74.84 14.7C75.0757 14.7145 75.3118 14.6821 75.535 14.6049C75.7581 14.5277 75.9637 14.4071 76.14 14.25C76.4831 13.8778 76.7061 13.4108 76.78 12.91C76.9235 12.2057 76.9972 11.4889 77 10.77V5.16003H81.39Z" fill="url(#paint6_linear_5_77)"/>
<path d="M100.09 4.92997C101.313 4.85088 102.519 5.25278 103.45 6.04997C103.874 6.54022 104.195 7.11061 104.394 7.72729C104.593 8.34397 104.667 8.99439 104.61 9.63997V18H100.18V11C100.234 10.3103 100.099 9.61886 99.79 8.99997C99.6617 8.81348 99.4877 8.6631 99.2845 8.56328C99.0814 8.46346 98.856 8.41755 98.63 8.42997C98.314 8.4079 97.9991 8.48713 97.7312 8.65617C97.4633 8.8252 97.2562 9.07524 97.14 9.36997C96.8337 10.2117 96.6944 11.105 96.73 12V18H92.29V11C92.3048 10.495 92.251 9.99042 92.13 9.49997C92.0559 9.17663 91.885 8.88359 91.64 8.65997C91.4003 8.48273 91.108 8.39116 90.81 8.39997C90.5918 8.3873 90.3734 8.42183 90.1698 8.50122C89.9662 8.5806 89.782 8.70296 89.63 8.85997C89.2952 9.24047 89.0766 9.70898 89 10.21C88.8732 10.9227 88.8162 11.6462 88.83 12.37V18H84.44V5.15997H87.78L88.42 6.73997H88.55C88.787 6.38399 89.0849 6.07256 89.43 5.81997C89.811 5.52895 90.2411 5.30878 90.7 5.16997C91.2507 5.00212 91.8243 4.92114 92.4 4.92997C93.204 4.90018 94.0033 5.06484 94.73 5.40997C95.3288 5.71458 95.8412 6.1651 96.22 6.71997H96.36C96.7597 6.15099 97.3008 5.69603 97.93 5.39997C98.6047 5.08048 99.3436 4.91971 100.09 4.92997Z" fill="url(#paint7_linear_5_77)"/>
<path d="M112.6 13.53V10H119V13.53H112.6Z" fill="url(#paint8_linear_5_77)"/>
<path d="M138.1 13C138.103 13.8953 137.869 14.7753 137.42 15.55C136.93 16.411 136.196 17.1071 135.31 17.55C134.158 18.0934 132.892 18.3507 131.62 18.3C130.952 18.3019 130.284 18.2685 129.62 18.2C129.08 18.1382 128.548 18.0243 128.03 17.86C127.506 17.6969 126.995 17.4963 126.5 17.26V13.26C127.368 13.6896 128.28 14.0248 129.22 14.26C130.028 14.4853 130.861 14.6063 131.7 14.62C132.07 14.6281 132.438 14.5741 132.79 14.46C133.038 14.3765 133.256 14.2238 133.42 14.02C133.553 13.8333 133.623 13.6092 133.62 13.38C133.622 13.2444 133.597 13.1097 133.545 12.9842C133.493 12.8587 133.417 12.745 133.32 12.65C133.021 12.3901 132.684 12.1776 132.32 12.02C131.88 11.81 131.32 11.53 130.58 11.21C130.015 10.9458 129.464 10.652 128.93 10.33C128.462 10.0582 128.034 9.72149 127.66 9.33002C127.305 8.93316 127.03 8.47134 126.85 7.97002C126.656 7.33251 126.581 6.66463 126.63 6.00002C126.597 5.04945 126.871 4.1135 127.41 3.33002C127.969 2.58379 128.733 2.01721 129.61 1.70002C130.651 1.32158 131.753 1.13852 132.86 1.16002C133.845 1.14873 134.827 1.26981 135.78 1.52002C136.574 1.73664 137.349 2.01413 138.1 2.35002L136.73 5.80002C136.053 5.49095 135.354 5.2303 134.64 5.02002C134.019 4.84114 133.376 4.74695 132.73 4.74002C132.407 4.72659 132.085 4.77408 131.78 4.88002C131.567 4.95222 131.38 5.08414 131.24 5.26002C131.12 5.41437 131.057 5.60481 131.06 5.80002C131.066 6.06031 131.174 6.30785 131.36 6.49002C131.66 6.75701 131.997 6.97931 132.36 7.15002C132.83 7.39002 133.48 7.70002 134.29 8.07002C135.015 8.39149 135.706 8.78692 136.35 9.25002C136.896 9.63955 137.342 10.1538 137.65 10.75C137.978 11.4532 138.132 12.2248 138.1 13Z" fill="url(#paint9_linear_5_77)"/>
<path d="M148 18.0001H143.53V5.09006H139.53V1.44006H152V5.09006H148V18.0001Z" fill="url(#paint10_linear_5_77)"/>
<path d="M154.35 1.44006H160.12C162.507 1.44006 164.213 1.7934 165.24 2.50006C165.736 2.83656 166.136 3.29461 166.404 3.83038C166.672 4.36616 166.798 4.96171 166.77 5.56006C166.788 6.19568 166.654 6.82645 166.38 7.40006C166.148 7.87454 165.805 8.28614 165.38 8.60006C165.016 8.87658 164.601 9.08029 164.16 9.20006V9.31006C164.637 9.43419 165.094 9.62258 165.52 9.87006C165.99 10.1408 166.379 10.5305 166.65 11.0001C166.976 11.6502 167.128 12.3738 167.09 13.1001C167.116 14.0219 166.85 14.9283 166.33 15.6901C165.778 16.4435 165.021 17.0231 164.15 17.3601C163.079 17.7719 161.937 17.9689 160.79 17.9401H154.35V1.44006ZM158.82 7.79006H160.17C160.73 7.84477 161.289 7.67984 161.73 7.33006C161.876 7.18296 161.991 7.00805 162.068 6.81567C162.146 6.62329 162.184 6.41736 162.18 6.21006C162.185 6.01414 162.141 5.82012 162.052 5.64553C161.962 5.47095 161.831 5.32128 161.67 5.21006C161.187 4.93558 160.634 4.81031 160.08 4.85006H158.82V7.79006ZM158.82 11.0601V14.5301H160.4C160.689 14.554 160.979 14.5195 161.254 14.4284C161.529 14.3373 161.783 14.1916 162 14.0001C162.315 13.6535 162.484 13.1983 162.47 12.7301C162.469 12.4416 162.4 12.1574 162.27 11.9001C162.12 11.6238 161.885 11.403 161.6 11.2701C161.184 11.0914 160.732 11.0094 160.28 11.0301L158.82 11.0601Z" fill="url(#paint11_linear_5_77)"/>
</g>
<defs>
<linearGradient id="paint0_linear_5_77" x1="0" y1="9.10006" x2="167.09" y2="9.10006" gradientUnits="userSpaceOnUse">
<stop stop-color="#0071BC"/>
<stop offset="0.32" stop-color="#00A9D7"/>
<stop offset="0.63" stop-color="#00D8ED"/>
<stop offset="0.87" stop-color="#00F4FA"/>
<stop offset="1" stop-color="#00FFFF"/>
</linearGradient>
<linearGradient id="paint1_linear_5_77" x1="-9.81534e-08" y1="9.09997" x2="167.09" y2="9.09997" gradientUnits="userSpaceOnUse">
<stop stop-color="#0071BC"/>
<stop offset="0.32" stop-color="#00A9D7"/>
<stop offset="0.63" stop-color="#00D8ED"/>
<stop offset="0.87" stop-color="#00F4FA"/>
<stop offset="1" stop-color="#00FFFF"/>
</linearGradient>
<linearGradient id="paint2_linear_5_77" x1="-8.65103e-06" y1="9.09998" x2="167.09" y2="9.09998" gradientUnits="userSpaceOnUse">
<stop stop-color="#0071BC"/>
<stop offset="0.32" stop-color="#00A9D7"/>
<stop offset="0.63" stop-color="#00D8ED"/>
<stop offset="0.87" stop-color="#00F4FA"/>
<stop offset="1" stop-color="#00FFFF"/>
</linearGradient>
<linearGradient id="paint3_linear_5_77" x1="2.06707e-06" y1="9.09999" x2="167.09" y2="9.09999" gradientUnits="userSpaceOnUse">
<stop stop-color="#0071BC"/>
<stop offset="0.32" stop-color="#00A9D7"/>
<stop offset="0.63" stop-color="#00D8ED"/>
<stop offset="0.87" stop-color="#00F4FA"/>
<stop offset="1" stop-color="#00FFFF"/>
</linearGradient>
<linearGradient id="paint4_linear_5_77" x1="-2.4604e-05" y1="9.09999" x2="167.09" y2="9.09999" gradientUnits="userSpaceOnUse">
<stop stop-color="#0071BC"/>
<stop offset="0.32" stop-color="#00A9D7"/>
<stop offset="0.63" stop-color="#00D8ED"/>
<stop offset="0.87" stop-color="#00F4FA"/>
<stop offset="1" stop-color="#00FFFF"/>
</linearGradient>
<linearGradient id="paint5_linear_5_77" x1="1.70872e-05" y1="9.10001" x2="167.09" y2="9.10001" gradientUnits="userSpaceOnUse">
<stop stop-color="#0071BC"/>
<stop offset="0.32" stop-color="#00A9D7"/>
<stop offset="0.63" stop-color="#00D8ED"/>
<stop offset="0.87" stop-color="#00F4FA"/>
<stop offset="1" stop-color="#00FFFF"/>
</linearGradient>
<linearGradient id="paint6_linear_5_77" x1="-5.51632e-06" y1="9.10003" x2="167.09" y2="9.10003" gradientUnits="userSpaceOnUse">
<stop stop-color="#0071BC"/>
<stop offset="0.32" stop-color="#00A9D7"/>
<stop offset="0.63" stop-color="#00D8ED"/>
<stop offset="0.87" stop-color="#00F4FA"/>
<stop offset="1" stop-color="#00FFFF"/>
</linearGradient>
<linearGradient id="paint7_linear_5_77" x1="1.28124e-05" y1="9.09997" x2="167.09" y2="9.09997" gradientUnits="userSpaceOnUse">
<stop stop-color="#0071BC"/>
<stop offset="0.32" stop-color="#00A9D7"/>
<stop offset="0.63" stop-color="#00D8ED"/>
<stop offset="0.87" stop-color="#00F4FA"/>
<stop offset="1" stop-color="#00FFFF"/>
</linearGradient>
<linearGradient id="paint8_linear_5_77" x1="-1.80581e-05" y1="9.1" x2="167.09" y2="9.1" gradientUnits="userSpaceOnUse">
<stop stop-color="#0071BC"/>
<stop offset="0.32" stop-color="#00A9D7"/>
<stop offset="0.63" stop-color="#00D8ED"/>
<stop offset="0.87" stop-color="#00F4FA"/>
<stop offset="1" stop-color="#00FFFF"/>
</linearGradient>
<linearGradient id="paint9_linear_5_77" x1="-6.8399e-05" y1="9.10002" x2="167.09" y2="9.10002" gradientUnits="userSpaceOnUse">
<stop stop-color="#0071BC"/>
<stop offset="0.32" stop-color="#00A9D7"/>
<stop offset="0.63" stop-color="#00D8ED"/>
<stop offset="0.87" stop-color="#00F4FA"/>
<stop offset="1" stop-color="#00FFFF"/>
</linearGradient>
<linearGradient id="paint10_linear_5_77" x1="-9.96768e-06" y1="9.10007" x2="167.09" y2="9.10007" gradientUnits="userSpaceOnUse">
<stop stop-color="#0071BC"/>
<stop offset="0.32" stop-color="#00A9D7"/>
<stop offset="0.63" stop-color="#00D8ED"/>
<stop offset="0.87" stop-color="#00F4FA"/>
<stop offset="1" stop-color="#00FFFF"/>
</linearGradient>
<linearGradient id="paint11_linear_5_77" x1="0.000122969" y1="9.10007" x2="167.09" y2="9.10007" gradientUnits="userSpaceOnUse">
<stop stop-color="#0071BC"/>
<stop offset="0.32" stop-color="#00A9D7"/>
<stop offset="0.63" stop-color="#00D8ED"/>
<stop offset="0.87" stop-color="#00F4FA"/>
<stop offset="1" stop-color="#00FFFF"/>
</linearGradient>
<clipPath id="clip0_5_77">
<rect width="167.09" height="18.21" fill="white"/>
</clipPath>
</defs>
</svg>
