<svg width="469" height="86" viewBox="0 0 469 86" fill="none" xmlns="http://www.w3.org/2000/svg">
<g clip-path="url(#clip0_18_1158)">
<path d="M123 51.26C123.003 53.2498 122.483 55.2054 121.49 56.93C120.391 58.8089 118.758 60.3193 116.8 61.27C114.232 62.4719 111.413 63.0412 108.58 62.93C107.104 62.9421 105.628 62.8687 104.16 62.71C102.954 62.5836 101.762 62.346 100.6 62C99.439 61.6232 98.3033 61.1723 97.2 60.65V51.76C99.1131 52.7365 101.124 53.5075 103.2 54.06C104.996 54.5583 106.847 54.8271 108.71 54.86C109.535 54.8859 110.358 54.764 111.14 54.5C111.697 54.3154 112.185 53.9668 112.54 53.5C112.841 53.0887 112.999 52.5898 112.99 52.08C112.996 51.7784 112.939 51.4788 112.824 51.2C112.709 50.9213 112.537 50.6693 112.32 50.46C111.686 49.8875 110.967 49.4153 110.19 49.06C109.19 48.58 107.94 47.97 106.34 47.25C105.079 46.6477 103.851 45.9801 102.66 45.25C101.632 44.635 100.696 43.8775 99.88 43C99.0932 42.1246 98.4822 41.1061 98.08 40C97.6336 38.6803 97.4204 37.2929 97.45 35.9C97.3629 33.7626 97.9775 31.6554 99.2 29.9C100.437 28.2437 102.134 26.9882 104.08 26.29C106.398 25.4421 108.853 25.0318 111.32 25.08C113.506 25.0546 115.686 25.3236 117.8 25.88C119.578 26.3724 121.316 26.9975 123 27.75L120 35.43C118.497 34.7349 116.942 34.1566 115.35 33.7C113.965 33.298 112.532 33.0827 111.09 33.06C110.377 33.0409 109.665 33.1493 108.99 33.38C108.519 33.5412 108.103 33.8324 107.79 34.22C107.532 34.5702 107.395 34.995 107.4 35.43C107.388 35.7187 107.435 36.0068 107.539 36.2767C107.642 36.5466 107.799 36.7927 108 37C108.664 37.6061 109.42 38.1024 110.24 38.47C111.287 39.0033 112.717 39.69 114.53 40.53C116.147 41.226 117.683 42.0979 119.11 43.13C120.32 43.9915 121.31 45.1253 122 46.44C122.714 47.9437 123.056 49.5965 123 51.26Z" fill="white"/>
<path d="M142 55.16C142.825 55.1695 143.648 55.0754 144.45 54.88C145.18 54.7 145.96 54.46 146.76 54.18V61.35C145.659 61.8298 144.518 62.2113 143.35 62.49C141.843 62.8181 140.302 62.9658 138.76 62.93C137.093 62.9609 135.436 62.6688 133.88 62.07C132.465 61.4878 131.3 60.4256 130.59 59.07C129.719 57.1946 129.317 55.1353 129.42 53.07V41.29H126V37.29L130.38 34.19L132.92 28.19H139.37V33.91H146.37V41.28H139.37V52.38C139.341 52.7559 139.388 53.1338 139.509 53.4912C139.629 53.8485 139.82 54.178 140.07 54.46C140.595 54.9393 141.289 55.191 142 55.16Z" fill="white"/>
<path d="M165.7 33.41C169.31 33.41 172.13 34.31 174.16 36.09C176.19 37.87 177.16 40.43 177.16 43.73V62.43H170.34L168.45 58.66H168.25C167.532 59.5797 166.698 60.4031 165.77 61.11C164.901 61.7529 163.917 62.2215 162.87 62.49C161.562 62.8116 160.217 62.9595 158.87 62.93C157.334 62.9569 155.815 62.614 154.44 61.93C153.13 61.2626 152.05 60.2176 151.34 58.93C150.534 57.3329 150.145 55.5578 150.21 53.77C150.21 50.77 151.27 48.45 153.38 46.98C155.49 45.51 158.56 44.67 162.57 44.49L167.32 44.34V43.93C167.372 43.437 167.314 42.9387 167.152 42.4703C166.989 42.002 166.726 41.5751 166.38 41.22C165.664 40.6503 164.764 40.3622 163.85 40.41C162.576 40.4346 161.311 40.6331 160.09 41C158.695 41.3962 157.328 41.8873 156 42.47L153.12 36C154.89 35.1179 156.77 34.4756 158.71 34.09C161.01 33.6219 163.353 33.394 165.7 33.41ZM167.41 49.7L165.15 49.8C163.815 49.7321 162.49 50.0591 161.34 50.74C160.975 51.0199 160.684 51.385 160.492 51.8033C160.3 52.2217 160.214 52.6806 160.24 53.14C160.203 53.5335 160.252 53.9304 160.384 54.3032C160.515 54.676 160.725 55.0161 161 55.3C161.576 55.7793 162.311 56.0254 163.06 55.99C164.186 56.0122 165.279 55.6087 166.12 54.86C166.543 54.4867 166.876 54.0235 167.096 53.5043C167.316 52.9851 167.416 52.4232 167.39 51.86L167.41 49.7Z" fill="white"/>
<path d="M193.74 23.27V32.13C193.74 33.13 193.74 34.13 193.64 35.01C193.54 35.89 193.48 36.79 193.38 37.59H193.74C194.486 36.4013 195.47 35.3799 196.63 34.59C198.031 33.7203 199.663 33.295 201.31 33.37C202.742 33.3538 204.156 33.6902 205.427 34.3493C206.698 35.0085 207.788 35.9704 208.6 37.15C210.48 39.67 211.423 43.31 211.43 48.07C211.505 50.8511 211.061 53.6218 210.12 56.24C209.419 58.2306 208.146 59.97 206.46 61.24C204.867 62.3725 202.954 62.9648 201 62.93C199.406 63.0474 197.811 62.7 196.41 61.93C195.429 61.291 194.529 60.5355 193.73 59.68H193.12L191.56 62.47H183.9V23.27H193.74ZM197.74 41.14C196.938 41.0793 196.141 41.3055 195.491 41.7781C194.841 42.2506 194.38 42.9389 194.19 43.72C193.882 44.8125 193.74 45.9453 193.77 47.08V48.46C193.663 50.1544 193.969 51.8494 194.66 53.4C194.981 53.9362 195.447 54.3708 196.005 54.6538C196.562 54.9369 197.188 55.0569 197.81 55C198.382 54.9969 198.94 54.8255 199.415 54.5071C199.889 54.1888 200.26 53.7376 200.48 53.21C201.188 51.5684 201.506 49.7852 201.41 48C201.509 46.237 201.201 44.4749 200.51 42.85C200.26 42.3239 199.862 41.882 199.364 41.5783C198.867 41.2747 198.292 41.1224 197.71 41.14H197.74Z" fill="white"/>
<path d="M226.88 62.43H217V23.27H226.84L226.88 62.43Z" fill="white"/>
<path d="M238.71 22.44C239.992 22.4118 241.26 22.7149 242.39 23.32C243.44 23.91 243.97 25.08 243.97 26.82C243.97 28.56 243.44 29.66 242.39 30.26C241.262 30.8729 239.993 31.1798 238.71 31.15C237.423 31.1873 236.149 30.88 235.02 30.26C234.02 29.66 233.5 28.52 233.5 26.82C233.5 25.12 234.01 23.91 235.02 23.32C236.151 22.708 237.424 22.4045 238.71 22.44ZM243.59 33.92V62.43H233.75V33.92H243.59Z" fill="white"/>
<path d="M278.19 33.92V62.43H270.77L269.54 58.88H269C268.436 59.8108 267.675 60.6062 266.77 61.21C265.852 61.8147 264.837 62.2577 263.77 62.52C262.658 62.7989 261.516 62.9366 260.37 62.93C258.627 62.9551 256.9 62.5859 255.32 61.85C253.804 61.1168 252.556 59.928 251.75 58.45C250.794 56.5995 250.339 54.5309 250.43 52.45V33.92H260.27V49.5C260.187 50.9467 260.459 52.3917 261.06 53.71C261.308 54.1782 261.687 54.5644 262.15 54.8217C262.613 55.0791 263.141 55.1966 263.67 55.16C264.192 55.1935 264.716 55.1224 265.211 54.9506C265.705 54.7789 266.161 54.5101 266.55 54.16C267.312 53.324 267.807 52.2793 267.97 51.16C268.262 49.5839 268.396 47.9827 268.37 46.38V33.92H278.19Z" fill="white"/>
<path d="M319.79 33.41C323.05 33.41 325.54 34.2433 327.26 35.91C328.98 37.5767 329.837 40.2433 329.83 43.91V62.43H320V46.93C320 44.76 319.72 43.26 319.14 42.41C318.856 41.9937 318.469 41.6579 318.017 41.4354C317.565 41.2128 317.063 41.1111 316.56 41.14C315.858 41.0927 315.159 41.2696 314.564 41.6453C313.969 42.0209 313.509 42.5758 313.25 43.23C312.554 45.1193 312.241 47.1284 312.33 49.14V62.43H302.46V46.93C302.489 45.8056 302.368 44.6823 302.1 43.59C301.932 42.872 301.548 42.2227 301 41.73C300.478 41.3258 299.83 41.1171 299.17 41.14C298.686 41.1093 298.2 41.1827 297.747 41.3552C297.293 41.5277 296.882 41.7953 296.54 42.14C295.827 42.9964 295.37 44.036 295.22 45.14C294.94 46.7275 294.813 48.3382 294.84 49.95V62.43H285V33.92H292.42L293.86 37.44H294.13C294.659 36.6481 295.318 35.9516 296.08 35.38C296.942 34.7433 297.906 34.2565 298.93 33.94C300.149 33.5709 301.417 33.3921 302.69 33.41C304.476 33.3456 306.252 33.7091 307.87 34.47C309.203 35.1549 310.347 36.1578 311.2 37.39H311.5C312.392 36.123 313.598 35.1098 315 34.45C316.496 33.7422 318.135 33.3864 319.79 33.41Z" fill="white"/>
<path d="M347.6 52.54V44.69H361.82V52.54H347.6Z" fill="white"/>
<path d="M404.33 51.26C404.328 53.2491 403.808 55.2034 402.82 56.93C401.718 58.8103 400.082 60.3209 398.12 61.27C395.556 62.473 392.74 63.0423 389.91 62.93C388.434 62.9421 386.958 62.8687 385.49 62.71C384.307 62.5798 383.139 62.3421 382 62C380.84 61.6215 379.704 61.1706 378.6 60.65V51.76C380.529 52.7408 382.557 53.5119 384.65 54.06C386.445 54.5589 388.297 54.8278 390.16 54.86C390.985 54.8859 391.808 54.764 392.59 54.5C393.144 54.3153 393.629 53.9665 393.98 53.5C394.284 53.0896 394.446 52.5909 394.44 52.08C394.444 51.7787 394.386 51.4798 394.271 51.2014C394.156 50.923 393.985 50.6708 393.77 50.46C393.132 49.8921 392.414 49.4204 391.64 49.06C390.64 48.58 389.38 47.97 387.79 47.25C386.525 46.6498 385.293 45.9821 384.1 45.25C383.059 44.6201 382.113 43.8457 381.29 42.95C380.5 42.0774 379.888 41.0581 379.49 39.95C379.044 38.6303 378.83 37.2429 378.86 35.85C378.773 33.7126 379.387 31.6054 380.61 29.85C381.845 28.1916 383.543 26.9356 385.49 26.24C387.804 25.3929 390.256 24.9826 392.72 25.03C394.906 25.0046 397.086 25.2736 399.2 25.83C400.97 26.314 402.701 26.9291 404.38 27.67L401.33 35.35C399.823 34.6548 398.265 34.0765 396.67 33.62C395.288 33.2173 393.859 33.0021 392.42 32.98C391.706 32.959 390.995 33.0674 390.32 33.3C389.845 33.4585 389.425 33.75 389.11 34.14C388.852 34.4902 388.715 34.915 388.72 35.35C388.721 35.6373 388.781 35.9213 388.896 36.1845C389.012 36.4476 389.18 36.6844 389.39 36.88C390.052 37.4885 390.808 37.985 391.63 38.35C392.677 38.8833 394.107 39.57 395.92 40.41C397.535 41.1108 399.07 41.9824 400.5 43.01C401.711 43.884 402.698 45.0319 403.38 46.36C404.084 47.8938 404.41 49.5742 404.33 51.26Z" fill="white"/>
<path d="M426.25 62.43H416.3V33.77H407.3V25.64H435.19V33.77H426.19L426.25 62.43Z" fill="white"/>
<path d="M440.46 25.64H453.3C458.633 25.64 462.423 26.4267 464.67 28C465.771 28.7479 466.662 29.7658 467.257 30.9564C467.852 32.147 468.132 33.4704 468.07 34.8C468.113 36.2166 467.814 37.6228 467.2 38.9C466.717 39.8769 466.031 40.7392 465.188 41.4291C464.344 42.119 463.363 42.6205 462.31 42.9V43.15C463.362 43.4287 464.371 43.8492 465.31 44.4C466.356 45.0334 467.218 45.9298 467.81 47C468.54 48.4445 468.885 50.0532 468.81 51.67C468.862 53.7209 468.267 55.7361 467.11 57.43C465.89 59.1092 464.208 60.398 462.27 61.14C459.886 62.06 457.344 62.5017 454.79 62.44H440.46V25.64ZM450.4 39.76H453.4C454.643 39.8932 455.889 39.5342 456.87 38.76C457.195 38.4353 457.451 38.0483 457.623 37.6221C457.795 37.1959 457.879 36.7394 457.87 36.28C457.894 35.8298 457.801 35.3811 457.599 34.9779C457.398 34.5746 457.095 34.2308 456.72 33.98C455.648 33.3704 454.42 33.0921 453.19 33.18H450.39L450.4 39.76ZM450.4 47.03V54.76H453.9C454.549 54.8284 455.206 54.7644 455.83 54.5719C456.454 54.3794 457.032 54.0624 457.53 53.64C458.075 53.0072 458.422 52.2277 458.527 51.3989C458.632 50.5701 458.491 49.7288 458.12 48.98C457.784 48.3612 457.258 47.8668 456.62 47.57C455.704 47.1568 454.704 46.9617 453.7 47L450.4 47.03Z" fill="white"/>
<path d="M123 51.26C123.003 53.2498 122.483 55.2054 121.49 56.93C120.391 58.8089 118.758 60.3193 116.8 61.27C114.232 62.4719 111.413 63.0412 108.58 62.93C107.104 62.9421 105.628 62.8687 104.16 62.71C102.954 62.5836 101.762 62.346 100.6 62C99.439 61.6232 98.3033 61.1723 97.2 60.65V51.76C99.1131 52.7365 101.124 53.5075 103.2 54.06C104.996 54.5583 106.847 54.8271 108.71 54.86C109.535 54.8859 110.358 54.764 111.14 54.5C111.697 54.3154 112.185 53.9668 112.54 53.5C112.841 53.0887 112.999 52.5898 112.99 52.08C112.996 51.7784 112.939 51.4788 112.824 51.2C112.709 50.9213 112.537 50.6693 112.32 50.46C111.686 49.8875 110.967 49.4153 110.19 49.06C109.19 48.58 107.94 47.97 106.34 47.25C105.079 46.6477 103.851 45.9801 102.66 45.25C101.632 44.635 100.696 43.8775 99.88 43C99.0932 42.1246 98.4822 41.1061 98.08 40C97.6336 38.6803 97.4204 37.2929 97.45 35.9C97.3629 33.7626 97.9775 31.6554 99.2 29.9C100.437 28.2437 102.134 26.9882 104.08 26.29C106.398 25.4421 108.853 25.0318 111.32 25.08C113.506 25.0546 115.686 25.3236 117.8 25.88C119.578 26.3724 121.316 26.9975 123 27.75L120 35.43C118.497 34.7349 116.942 34.1566 115.35 33.7C113.965 33.298 112.532 33.0827 111.09 33.06C110.377 33.0409 109.665 33.1493 108.99 33.38C108.519 33.5412 108.103 33.8324 107.79 34.22C107.532 34.5702 107.395 34.995 107.4 35.43C107.388 35.7187 107.435 36.0068 107.539 36.2767C107.642 36.5466 107.799 36.7927 108 37C108.664 37.6061 109.42 38.1024 110.24 38.47C111.287 39.0033 112.717 39.69 114.53 40.53C116.147 41.226 117.683 42.0979 119.11 43.13C120.32 43.9915 121.31 45.1253 122 46.44C122.714 47.9437 123.056 49.5965 123 51.26Z" fill="url(#paint0_linear_18_1158)"/>
<path d="M142 55.16C142.825 55.1695 143.648 55.0754 144.45 54.88C145.18 54.7 145.96 54.46 146.76 54.18V61.35C145.659 61.8298 144.518 62.2113 143.35 62.49C141.843 62.8181 140.302 62.9658 138.76 62.93C137.093 62.9609 135.436 62.6688 133.88 62.07C132.465 61.4878 131.3 60.4256 130.59 59.07C129.719 57.1946 129.317 55.1353 129.42 53.07V41.29H126V37.29L130.38 34.19L132.92 28.19H139.37V33.91H146.37V41.28H139.37V52.38C139.341 52.7559 139.388 53.1338 139.509 53.4912C139.629 53.8485 139.82 54.178 140.07 54.46C140.595 54.9393 141.289 55.191 142 55.16Z" fill="url(#paint1_linear_18_1158)"/>
<path d="M165.7 33.41C169.31 33.41 172.13 34.31 174.16 36.09C176.19 37.87 177.16 40.43 177.16 43.73V62.43H170.34L168.45 58.66H168.25C167.532 59.5797 166.698 60.4031 165.77 61.11C164.901 61.7529 163.917 62.2215 162.87 62.49C161.562 62.8116 160.217 62.9595 158.87 62.93C157.334 62.9569 155.815 62.614 154.44 61.93C153.13 61.2626 152.05 60.2176 151.34 58.93C150.534 57.3329 150.145 55.5578 150.21 53.77C150.21 50.77 151.27 48.45 153.38 46.98C155.49 45.51 158.56 44.67 162.57 44.49L167.32 44.34V43.93C167.372 43.437 167.314 42.9387 167.152 42.4703C166.989 42.002 166.726 41.5751 166.38 41.22C165.664 40.6503 164.764 40.3622 163.85 40.41C162.576 40.4346 161.311 40.6331 160.09 41C158.695 41.3962 157.328 41.8873 156 42.47L153.12 36C154.89 35.1179 156.77 34.4756 158.71 34.09C161.01 33.6219 163.353 33.394 165.7 33.41ZM167.41 49.7L165.15 49.8C163.815 49.7321 162.49 50.0591 161.34 50.74C160.975 51.0199 160.684 51.385 160.492 51.8033C160.3 52.2217 160.214 52.6806 160.24 53.14C160.203 53.5335 160.252 53.9304 160.384 54.3032C160.515 54.676 160.725 55.0161 161 55.3C161.576 55.7793 162.311 56.0254 163.06 55.99C164.186 56.0122 165.279 55.6087 166.12 54.86C166.543 54.4867 166.876 54.0235 167.096 53.5043C167.316 52.9851 167.416 52.4232 167.39 51.86L167.41 49.7Z" fill="url(#paint2_linear_18_1158)"/>
<path d="M193.74 23.27V32.13C193.74 33.13 193.74 34.13 193.64 35.01C193.54 35.89 193.48 36.79 193.38 37.59H193.74C194.486 36.4013 195.47 35.3799 196.63 34.59C198.031 33.7203 199.663 33.295 201.31 33.37C202.742 33.3538 204.156 33.6902 205.427 34.3493C206.698 35.0085 207.788 35.9704 208.6 37.15C210.48 39.67 211.423 43.31 211.43 48.07C211.505 50.8511 211.061 53.6218 210.12 56.24C209.419 58.2306 208.146 59.97 206.46 61.24C204.867 62.3725 202.954 62.9648 201 62.93C199.406 63.0474 197.811 62.7 196.41 61.93C195.429 61.291 194.529 60.5355 193.73 59.68H193.12L191.56 62.47H183.9V23.27H193.74ZM197.74 41.14C196.938 41.0793 196.141 41.3055 195.491 41.7781C194.841 42.2506 194.38 42.9389 194.19 43.72C193.882 44.8125 193.74 45.9453 193.77 47.08V48.46C193.663 50.1544 193.969 51.8494 194.66 53.4C194.981 53.9362 195.447 54.3708 196.005 54.6538C196.562 54.9369 197.188 55.0569 197.81 55C198.382 54.9969 198.94 54.8255 199.415 54.5071C199.889 54.1888 200.26 53.7376 200.48 53.21C201.188 51.5684 201.506 49.7852 201.41 48C201.509 46.237 201.201 44.4749 200.51 42.85C200.26 42.3239 199.862 41.882 199.364 41.5783C198.867 41.2747 198.292 41.1224 197.71 41.14H197.74Z" fill="url(#paint3_linear_18_1158)"/>
<path d="M226.88 62.43H217V23.27H226.84L226.88 62.43Z" fill="url(#paint4_linear_18_1158)"/>
<path d="M238.71 22.44C239.992 22.4118 241.26 22.7149 242.39 23.32C243.44 23.91 243.97 25.08 243.97 26.82C243.97 28.56 243.44 29.66 242.39 30.26C241.262 30.8729 239.993 31.1798 238.71 31.15C237.423 31.1873 236.149 30.88 235.02 30.26C234.02 29.66 233.5 28.52 233.5 26.82C233.5 25.12 234.01 23.91 235.02 23.32C236.151 22.708 237.424 22.4045 238.71 22.44ZM243.59 33.92V62.43H233.75V33.92H243.59Z" fill="url(#paint5_linear_18_1158)"/>
<path d="M278.19 33.92V62.43H270.77L269.54 58.88H269C268.436 59.8108 267.675 60.6062 266.77 61.21C265.852 61.8147 264.837 62.2577 263.77 62.52C262.658 62.7989 261.516 62.9366 260.37 62.93C258.627 62.9551 256.9 62.5859 255.32 61.85C253.804 61.1168 252.556 59.928 251.75 58.45C250.794 56.5995 250.339 54.5309 250.43 52.45V33.92H260.27V49.5C260.187 50.9467 260.459 52.3917 261.06 53.71C261.308 54.1782 261.687 54.5644 262.15 54.8217C262.613 55.0791 263.141 55.1966 263.67 55.16C264.192 55.1935 264.716 55.1224 265.211 54.9506C265.705 54.7789 266.161 54.5101 266.55 54.16C267.312 53.324 267.807 52.2793 267.97 51.16C268.262 49.5839 268.396 47.9827 268.37 46.38V33.92H278.19Z" fill="url(#paint6_linear_18_1158)"/>
<path d="M319.79 33.41C323.05 33.41 325.54 34.2433 327.26 35.91C328.98 37.5767 329.837 40.2433 329.83 43.91V62.43H320V46.93C320 44.76 319.72 43.26 319.14 42.41C318.856 41.9937 318.469 41.6579 318.017 41.4354C317.565 41.2128 317.063 41.1111 316.56 41.14C315.858 41.0927 315.159 41.2696 314.564 41.6453C313.969 42.0209 313.509 42.5758 313.25 43.23C312.554 45.1193 312.241 47.1284 312.33 49.14V62.43H302.46V46.93C302.489 45.8056 302.368 44.6823 302.1 43.59C301.932 42.872 301.548 42.2227 301 41.73C300.478 41.3258 299.83 41.1171 299.17 41.14C298.686 41.1093 298.2 41.1827 297.747 41.3552C297.293 41.5277 296.882 41.7953 296.54 42.14C295.827 42.9964 295.37 44.036 295.22 45.14C294.94 46.7275 294.813 48.3382 294.84 49.95V62.43H285V33.92H292.42L293.86 37.44H294.13C294.659 36.6481 295.318 35.9516 296.08 35.38C296.942 34.7433 297.906 34.2565 298.93 33.94C300.149 33.5709 301.417 33.3921 302.69 33.41C304.476 33.3456 306.252 33.7091 307.87 34.47C309.203 35.1549 310.347 36.1578 311.2 37.39H311.5C312.392 36.123 313.598 35.1098 315 34.45C316.496 33.7422 318.135 33.3864 319.79 33.41Z" fill="url(#paint7_linear_18_1158)"/>
<path d="M347.6 52.54V44.69H361.82V52.54H347.6Z" fill="url(#paint8_linear_18_1158)"/>
<path d="M404.33 51.26C404.328 53.2491 403.808 55.2034 402.82 56.93C401.718 58.8103 400.082 60.3209 398.12 61.27C395.556 62.473 392.74 63.0423 389.91 62.93C388.434 62.9421 386.958 62.8687 385.49 62.71C384.307 62.5798 383.139 62.3421 382 62C380.84 61.6215 379.704 61.1706 378.6 60.65V51.76C380.529 52.7408 382.557 53.5119 384.65 54.06C386.445 54.5589 388.297 54.8278 390.16 54.86C390.985 54.8859 391.808 54.764 392.59 54.5C393.144 54.3153 393.629 53.9665 393.98 53.5C394.284 53.0896 394.446 52.5909 394.44 52.08C394.444 51.7787 394.386 51.4798 394.271 51.2014C394.156 50.923 393.985 50.6708 393.77 50.46C393.132 49.8921 392.414 49.4204 391.64 49.06C390.64 48.58 389.38 47.97 387.79 47.25C386.525 46.6498 385.293 45.9821 384.1 45.25C383.059 44.6201 382.113 43.8457 381.29 42.95C380.5 42.0774 379.888 41.0581 379.49 39.95C379.044 38.6303 378.83 37.2429 378.86 35.85C378.773 33.7126 379.387 31.6054 380.61 29.85C381.845 28.1916 383.543 26.9356 385.49 26.24C387.804 25.3929 390.256 24.9826 392.72 25.03C394.906 25.0046 397.086 25.2736 399.2 25.83C400.97 26.314 402.701 26.9291 404.38 27.67L401.33 35.35C399.823 34.6548 398.265 34.0765 396.67 33.62C395.288 33.2173 393.859 33.0021 392.42 32.98C391.706 32.959 390.995 33.0674 390.32 33.3C389.845 33.4585 389.425 33.75 389.11 34.14C388.852 34.4902 388.715 34.915 388.72 35.35C388.721 35.6373 388.781 35.9213 388.896 36.1845C389.012 36.4476 389.18 36.6844 389.39 36.88C390.052 37.4885 390.808 37.985 391.63 38.35C392.677 38.8833 394.107 39.57 395.92 40.41C397.535 41.1108 399.07 41.9824 400.5 43.01C401.711 43.884 402.698 45.0319 403.38 46.36C404.084 47.8938 404.41 49.5742 404.33 51.26Z" fill="url(#paint9_linear_18_1158)"/>
<path d="M426.25 62.43H416.3V33.77H407.3V25.64H435.19V33.77H426.19L426.25 62.43Z" fill="url(#paint10_linear_18_1158)"/>
<path d="M440.46 25.64H453.3C458.633 25.64 462.423 26.4267 464.67 28C465.771 28.7479 466.662 29.7658 467.257 30.9564C467.852 32.147 468.132 33.4704 468.07 34.8C468.113 36.2166 467.814 37.6228 467.2 38.9C466.717 39.8769 466.031 40.7392 465.188 41.4291C464.344 42.119 463.363 42.6205 462.31 42.9V43.15C463.362 43.4287 464.371 43.8492 465.31 44.4C466.356 45.0334 467.218 45.9298 467.81 47C468.54 48.4445 468.885 50.0532 468.81 51.67C468.862 53.7209 468.267 55.7361 467.11 57.43C465.89 59.1092 464.208 60.398 462.27 61.14C459.886 62.06 457.344 62.5017 454.79 62.44H440.46V25.64ZM450.4 39.76H453.4C454.643 39.8932 455.889 39.5342 456.87 38.76C457.195 38.4353 457.451 38.0483 457.623 37.6221C457.795 37.1959 457.879 36.7394 457.87 36.28C457.894 35.8298 457.801 35.3811 457.599 34.9779C457.398 34.5746 457.095 34.2308 456.72 33.98C455.648 33.3704 454.42 33.0921 453.19 33.18H450.39L450.4 39.76ZM450.4 47.03V54.76H453.9C454.549 54.8284 455.206 54.7644 455.83 54.5719C456.454 54.3794 457.032 54.0624 457.53 53.64C458.075 53.0072 458.422 52.2277 458.527 51.3989C458.632 50.5701 458.491 49.7288 458.12 48.98C457.784 48.3612 457.258 47.8668 456.62 47.57C455.704 47.1568 454.704 46.9617 453.7 47L450.4 47.03Z" fill="url(#paint11_linear_18_1158)"/>
<path d="M67.88 13.12H62.5C56.6972 7.72621 49.2229 4.48119 41.32 3.92449C33.4171 3.36779 25.5617 5.53297 19.06 10.06L27.25 13.12H9.89C11.3793 11.4289 13.0121 9.86977 14.77 8.46C22.5229 2.25702 32.3678 -0.719894 42.2588 0.14796C52.1497 1.01581 61.3258 5.66169 67.88 13.12Z" fill="#027DC2"/>
<path d="M29.18 76C26.9775 75.4352 24.8318 74.6687 22.77 73.71C14.3773 69.8441 7.64577 63.1014 3.7938 54.7023C-0.0581682 46.3032 -0.776081 36.8026 1.76999 27.92L4.58999 32.86C4.26767 34.7697 4.1071 36.7033 4.10999 38.64C4.1188 44.835 5.78165 50.9153 8.92673 56.2526C12.0718 61.5899 16.585 65.9906 22 69L20.74 61.17L26.36 71L29.18 76Z" fill="#027DC2"/>
<path d="M77.48 38.6C77.4891 47.1539 74.6567 55.4685 69.4276 62.238C64.1984 69.0075 56.8688 73.8482 48.59 76L51.4 71C57.9391 68.4679 63.561 64.0199 67.5294 58.2386C71.4978 52.4573 73.6277 45.6122 73.64 38.6C73.64 38.39 73.64 38.19 73.64 37.99L67.12 43.44L73.12 32.82L76 27.88C76.6681 30.1825 77.1167 32.543 77.34 34.93C77.42 36.13 77.48 37.36 77.48 38.6Z" fill="#027DC2"/>
<path d="M47.72 69.72L47.14 70.74L45.51 73.6L44.95 74.58L43.3 77.48L41.09 81.36L38.88 85.24L32.81 74.58L30.63 70.74H30.62L24.06 59.22H28.48L37.23 74.58L38.88 77.48L40.53 74.58L41.09 73.6L42.72 70.74L43.3 69.72L41.7 66.9L41.09 65.84L39.51 63.06L38.88 61.95L37.32 59.22L35.13 55.37L32.22 50.25L26.29 55.37H21.87L17.5 47.69L15.31 43.85L4.37 24.65H22.05L24.24 28.49L32.99 43.85H28.57L24.2 36.17L19.82 28.49H10.98L13.17 32.33L24.84 52.81L30.76 47.69H35.18L37.37 51.53L38.88 54.19L39.55 55.37L41.09 58.07L41.74 59.22L43.3 61.95L43.93 63.06L45.51 65.84L46.12 66.9L47.72 69.72Z" fill="#03FDFE"/>
<path d="M77.77 16.96L76.45 19.28L75.58 20.8H28.7L39.64 40.01L41.09 42.56L41.83 43.85L43.3 46.44L44.02 47.69L45.51 50.32L46.2 51.53L47.72 54.2L48.39 55.37L49.93 58.08L50.58 59.21L52.14 61.96L51.52 63.05L49.94 65.84L48.35 63.05L47.72 61.96L46.16 59.21L45.51 58.08L43.98 55.37L43.3 54.19L41.79 51.53L41.09 50.31L39.6 47.69L38.88 46.43L37.41 43.85L28.66 28.49L26.47 24.64L24.29 20.8H2.19L0 16.96H77.77Z" fill="#03FDFE"/>
<path d="M70.67 24.65H35.31L41.87 36.17L43.3 38.68L44.06 40L45.51 42.55L46.25 43.84L47.72 46.43L48.43 47.68L49.93 50.31L50.62 51.52L52.14 54.19L52.81 55.36L54.35 58.07L55.89 55.36L56.56 54.19L58.08 51.52L58.77 50.31L60.27 47.68L61 46.44L62.48 43.85L63.21 42.56L64.64 40L65.4 38.67L64 36.17H66.86L72 27L70.67 24.65ZM61 38.68L60.22 40L58.77 42.55L58 43.85L56.52 46.44L55.81 47.69L54.31 50.32L52.81 47.69L52.1 46.44L50.63 43.85L49.89 42.56L48.48 40L47.72 38.67L46.29 36.16H62.41L61 38.68ZM65.42 30.91L64.62 32.33H44.1L41.92 28.49H66.79L65.42 30.91Z" fill="#03FDFE"/>
</g>
<defs>
<linearGradient id="paint0_linear_18_1158" x1="97.2" y1="42.69" x2="468.8" y2="42.69" gradientUnits="userSpaceOnUse">
<stop stop-color="#0071BC"/>
<stop offset="0.32" stop-color="#00A9D7"/>
<stop offset="0.63" stop-color="#00D8ED"/>
<stop offset="0.87" stop-color="#00F4FA"/>
<stop offset="1" stop-color="#00FFFF"/>
</linearGradient>
<linearGradient id="paint1_linear_18_1158" x1="97.2" y1="42.69" x2="468.8" y2="42.69" gradientUnits="userSpaceOnUse">
<stop stop-color="#0071BC"/>
<stop offset="0.32" stop-color="#00A9D7"/>
<stop offset="0.63" stop-color="#00D8ED"/>
<stop offset="0.87" stop-color="#00F4FA"/>
<stop offset="1" stop-color="#00FFFF"/>
</linearGradient>
<linearGradient id="paint2_linear_18_1158" x1="97.2" y1="42.69" x2="468.8" y2="42.69" gradientUnits="userSpaceOnUse">
<stop stop-color="#0071BC"/>
<stop offset="0.32" stop-color="#00A9D7"/>
<stop offset="0.63" stop-color="#00D8ED"/>
<stop offset="0.87" stop-color="#00F4FA"/>
<stop offset="1" stop-color="#00FFFF"/>
</linearGradient>
<linearGradient id="paint3_linear_18_1158" x1="97.2" y1="42.69" x2="468.8" y2="42.69" gradientUnits="userSpaceOnUse">
<stop stop-color="#0071BC"/>
<stop offset="0.32" stop-color="#00A9D7"/>
<stop offset="0.63" stop-color="#00D8ED"/>
<stop offset="0.87" stop-color="#00F4FA"/>
<stop offset="1" stop-color="#00FFFF"/>
</linearGradient>
<linearGradient id="paint4_linear_18_1158" x1="97.1999" y1="42.69" x2="468.8" y2="42.69" gradientUnits="userSpaceOnUse">
<stop stop-color="#0071BC"/>
<stop offset="0.32" stop-color="#00A9D7"/>
<stop offset="0.63" stop-color="#00D8ED"/>
<stop offset="0.87" stop-color="#00F4FA"/>
<stop offset="1" stop-color="#00FFFF"/>
</linearGradient>
<linearGradient id="paint5_linear_18_1158" x1="97.2" y1="42.69" x2="468.8" y2="42.69" gradientUnits="userSpaceOnUse">
<stop stop-color="#0071BC"/>
<stop offset="0.32" stop-color="#00A9D7"/>
<stop offset="0.63" stop-color="#00D8ED"/>
<stop offset="0.87" stop-color="#00F4FA"/>
<stop offset="1" stop-color="#00FFFF"/>
</linearGradient>
<linearGradient id="paint6_linear_18_1158" x1="97.1999" y1="42.69" x2="468.8" y2="42.69" gradientUnits="userSpaceOnUse">
<stop stop-color="#0071BC"/>
<stop offset="0.32" stop-color="#00A9D7"/>
<stop offset="0.63" stop-color="#00D8ED"/>
<stop offset="0.87" stop-color="#00F4FA"/>
<stop offset="1" stop-color="#00FFFF"/>
</linearGradient>
<linearGradient id="paint7_linear_18_1158" x1="97.2001" y1="42.69" x2="468.8" y2="42.69" gradientUnits="userSpaceOnUse">
<stop stop-color="#0071BC"/>
<stop offset="0.32" stop-color="#00A9D7"/>
<stop offset="0.63" stop-color="#00D8ED"/>
<stop offset="0.87" stop-color="#00F4FA"/>
<stop offset="1" stop-color="#00FFFF"/>
</linearGradient>
<linearGradient id="paint8_linear_18_1158" x1="97.1999" y1="42.69" x2="468.8" y2="42.69" gradientUnits="userSpaceOnUse">
<stop stop-color="#0071BC"/>
<stop offset="0.32" stop-color="#00A9D7"/>
<stop offset="0.63" stop-color="#00D8ED"/>
<stop offset="0.87" stop-color="#00F4FA"/>
<stop offset="1" stop-color="#00FFFF"/>
</linearGradient>
<linearGradient id="paint9_linear_18_1158" x1="97.2" y1="42.69" x2="468.8" y2="42.69" gradientUnits="userSpaceOnUse">
<stop stop-color="#0071BC"/>
<stop offset="0.32" stop-color="#00A9D7"/>
<stop offset="0.63" stop-color="#00D8ED"/>
<stop offset="0.87" stop-color="#00F4FA"/>
<stop offset="1" stop-color="#00FFFF"/>
</linearGradient>
<linearGradient id="paint10_linear_18_1158" x1="97.1998" y1="42.69" x2="468.8" y2="42.69" gradientUnits="userSpaceOnUse">
<stop stop-color="#0071BC"/>
<stop offset="0.32" stop-color="#00A9D7"/>
<stop offset="0.63" stop-color="#00D8ED"/>
<stop offset="0.87" stop-color="#00F4FA"/>
<stop offset="1" stop-color="#00FFFF"/>
</linearGradient>
<linearGradient id="paint11_linear_18_1158" x1="97.1999" y1="42.69" x2="468.8" y2="42.69" gradientUnits="userSpaceOnUse">
<stop stop-color="#0071BC"/>
<stop offset="0.32" stop-color="#00A9D7"/>
<stop offset="0.63" stop-color="#00D8ED"/>
<stop offset="0.87" stop-color="#00F4FA"/>
<stop offset="1" stop-color="#00FFFF"/>
</linearGradient>
<clipPath id="clip0_18_1158">
<rect width="468.8" height="85.24" fill="white"/>
</clipPath>
</defs>
</svg>
