<svg width="40" height="44" viewBox="0 0 40 44" fill="none" xmlns="http://www.w3.org/2000/svg">
<g clip-path="url(#clip0_18_861)">
<path d="M34.9102 6.74481H32.1416C29.1526 3.97852 25.3077 2.31744 21.2447 2.03724C17.1818 1.75704 13.1452 2.87456 9.80484 5.20434L14.0203 6.77603H5.08978C5.8545 5.89688 6.69378 5.08547 7.59823 4.35084C11.5848 1.16039 16.6474 -0.371085 21.734 0.0747607C26.8205 0.520606 31.5395 2.90947 34.9102 6.74481Z" fill="#027DC2"/>
<path d="M15.0091 39.0633C13.8751 38.7746 12.7705 38.3809 11.7096 37.8871C8.25761 36.3029 5.33294 33.761 3.28307 30.5635C1.2332 27.366 0.144294 23.6473 0.145719 19.8491C0.14304 17.986 0.405896 16.132 0.926359 14.343L2.37315 16.8827C2.19165 17.8614 2.09414 18.8538 2.08171 19.8491C2.08545 23.034 2.93924 26.1601 4.55491 28.9048C6.17059 31.6494 8.48958 33.913 11.2724 35.4619L10.6271 31.4338L13.5311 36.5236L15.0091 39.0633Z" fill="#027DC2"/>
<path d="M39.8543 19.8491C39.854 24.247 38.3931 28.5203 35.701 31.998C33.0089 35.4757 29.238 37.9609 24.9805 39.0632L26.4273 36.5235C29.7901 35.2225 32.682 32.9368 34.7248 29.9655C36.7675 26.9942 37.8661 23.4756 37.8767 19.8699V19.5576L34.5147 22.3575L37.6373 16.9035L39.084 14.3638C39.4257 15.547 39.6557 16.7597 39.771 17.9859C39.8297 18.6052 39.8575 19.227 39.8543 19.8491Z" fill="#027DC2"/>
<path d="M24.5433 35.8574L24.2519 36.3778L23.4088 37.8559L23.1174 38.3555L22.2743 39.8439L21.1397 41.8423L19.9948 43.8408L16.8722 38.3555L15.7481 36.3778L12.3758 30.4554H14.6448L19.1517 38.3555L19.9948 39.8439L20.8483 38.3555L21.1397 37.8559L21.9724 36.3778L22.2743 35.8574L21.4416 34.4106L21.1397 33.859L20.3175 32.433L19.9948 31.8605L19.1933 30.4554L18.0692 28.4778L16.5704 25.8444L13.5207 28.4778H11.2516L9.00338 24.5329L7.87926 22.5553L2.24825 12.6776H11.3453L12.4694 14.6552L16.9659 22.5553H14.6969L12.4486 18.6001L10.19 14.6552H5.65184L6.77596 16.6224L12.7713 27.1663L15.821 24.5329H18.09L19.2142 26.5001L19.9948 27.8741L20.3487 28.4778L21.1397 29.8725L21.4728 30.4554L22.2743 31.8605L22.5969 32.433L23.4088 33.859L23.7211 34.4106L24.5433 35.8574Z" fill="#03FDFE"/>
<path d="M40 8.72241L39.3234 9.91939L38.8759 10.7H14.7593L20.3903 20.5777L21.1293 21.8892L21.5144 22.5554L22.2743 23.8876L22.6386 24.533L23.4088 25.8757L23.7627 26.5002L24.5433 27.8741L24.8868 28.4778L25.6779 29.8726L26.0109 30.4554L26.8228 31.871L26.5001 32.4331L25.6883 33.859L24.866 32.4331L24.5433 31.8606L23.7419 30.4554L23.4088 29.8726L22.6177 28.4778L22.2743 27.8741L21.4936 26.5002L21.1293 25.8757L20.3695 24.533L19.9948 23.8772L19.2454 22.5554L14.7385 14.6553L13.6144 12.6777L12.4902 10.7H1.12412L0 8.72241H40Z" fill="#03FDFE"/>
<path d="M36.3466 12.6776H18.1629L21.5353 18.6001L22.2743 19.8907L22.6594 20.5777L23.4088 21.8579L23.7835 22.5241L24.5433 23.9396L24.9076 24.585L25.6779 25.9277L26.0317 26.5522L26.8124 27.9261L27.1663 28.5298L27.9573 29.9246L28.7484 28.5298L29.0919 27.9261L29.8725 26.5522L30.2264 25.9381L30.9966 24.585L31.3609 23.9396L32.1207 22.6074L32.4954 21.9412L33.2449 20.6297L33.6404 19.9428L32.9014 18.6521H34.3482L37.0232 13.9579L36.3466 12.6776ZM31.3609 19.8907L30.9758 20.5777L30.1848 21.8579L29.81 22.5241L29.1439 23.9396L28.7796 24.585L28.0094 25.9381L27.2391 24.585L26.8124 23.9396L26.0213 22.5553L25.6779 21.8579L24.9805 20.5777L24.585 19.8907L23.846 18.6001H32.1728L31.3609 19.8907ZM33.6404 15.9043L33.224 16.6224H22.6802L21.5561 14.6552H34.3482L33.6404 15.9043Z" fill="#03FDFE"/>
</g>
<defs>
<clipPath id="clip0_18_861">
<rect width="40" height="43.8407" fill="white"/>
</clipPath>
</defs>
</svg>
